<svg width="64" height="64" viewBox="0 0 16.933 16.933" xmlns="http://www.w3.org/2000/svg"><g transform="translate(0 -280.07)"><path d="M10.583 291.18v1.588c0 .529.53 1.058 1.058 1.058h1.323s.53 0 .53.529v1.058s0 .53-.53.53h-2.646c-.793 0-2.116-1.059-2.116-2.646v-1.059z" fill="#F4F4F4" fill-rule="evenodd" stroke="#000" stroke-linejoin="round" stroke-width=".529"/><path d="m11.377 290.91-4.498 2.117v-6.35l.794-1.852 2.91-2.382 2.117-1.322h.53v.793l-1.588 1.588-.53 1.852-.264 2.381v2.646l.529.264z" fill="#99999B" fill-rule="evenodd"/><path d="M6.88 293.03v-6.615l1.058-1.852 2.91-2.116 1.852-1.323H8.996l-1.852.529-2.382 2.117-1.058 2.116-.264 1.059v7.408h.529z" fill="#F4F4F4" fill-rule="evenodd"/><path d="M6.88 293.03v-6.085c0-2.382 5.29-5.821 6.35-5.821" fill="none" stroke="#444" stroke-linejoin="round" stroke-width=".529"/><path d="M13.229 281.12H9.26c-1.852 0-5.82 2.646-5.82 5.556v7.673h.529l7.408-3.44v-.264s-.53-.265-.53-.794v-3.704c0-2.117 2.382-4.233 2.382-4.233z" fill="none" stroke="#000" stroke-linejoin="round" stroke-width=".529"/><circle cx="9.128" cy="286.81" fill="#F4F4F4" stroke="#444" stroke-linecap="round" stroke-linejoin="round" stroke-width=".529" style="paint-order:normal" r=".661"/><circle cx="9.128" cy="289.72" fill="#F4F4F4" stroke="#444" stroke-linecap="round" stroke-linejoin="round" stroke-width=".529" style="paint-order:normal" r=".661"/><path d="m8.467 294.35 2.116-1.587m.529 1.057-1.587 1.588m2.381-1.588v2.117" fill="none" stroke="#000" stroke-linejoin="round" stroke-width=".529"/></g></svg>