<svg xmlns="http://www.w3.org/2000/svg" width="64" height="64" viewBox="0 0 16.933 16.933"><path style="display:inline;opacity:1;vector-effect:none;fill:#99999b;fill-opacity:1;fill-rule:evenodd;stroke:#000;stroke-width:.5291667;stroke-linecap:butt;stroke-linejoin:round;stroke-miterlimit:4;stroke-dasharray:none;stroke-dashoffset:0;stroke-opacity:1" d="M8.599 282.977H3.836v6.085h9.26v-6.085z" transform="translate(0 -280.067)"/><path style="display:inline;opacity:1;vector-effect:none;fill:#f4f4f4;fill-opacity:1;fill-rule:evenodd;stroke:#000;stroke-width:.5291667;stroke-linecap:butt;stroke-linejoin:round;stroke-miterlimit:4;stroke-dasharray:none;stroke-dashoffset:0;stroke-opacity:1" d="m8.07 281.654.264-.264H8.6l1.058 1.058v.53H7.276v-.53zm-5.821 4.763-.265-.265v-.265l1.059-1.058h.529v2.381h-.53zm12.435 0 .265-.265v-.265l-1.058-1.058h-.53v2.381h.53z" transform="translate(0 -280.067)"/><path style="display:inline;opacity:1;fill:#f4f4f4;fill-opacity:1;fill-rule:nonzero;stroke:#000;stroke-width:.5291667;stroke-linecap:round;stroke-linejoin:round;stroke-miterlimit:4;stroke-dasharray:none;stroke-dashoffset:0;stroke-opacity:1;paint-order:normal" d="M7.276 289.063h2.117v1.588H7.276z" transform="translate(0 -280.067)"/><path style="display:inline;opacity:1;fill:#99999b;fill-opacity:1;fill-rule:nonzero;stroke:#000;stroke-width:.5291667;stroke-linecap:round;stroke-linejoin:round;stroke-miterlimit:4;stroke-dasharray:none;stroke-dashoffset:0;stroke-opacity:1;paint-order:normal" d="M7.276 290.65h2.117v1.323H7.276zm0 1.323h2.117v1.588H7.276z" transform="translate(0 -280.067)"/><path style="display:inline;opacity:1;fill:#f4f4f4;fill-opacity:1;fill-rule:nonzero;stroke:#000;stroke-width:.5291667;stroke-linecap:round;stroke-linejoin:round;stroke-miterlimit:4;stroke-dasharray:none;stroke-dashoffset:0;stroke-opacity:1;paint-order:normal" d="M7.276 293.56h2.117v2.117H7.276z" transform="translate(0 -280.067)"/><path style="display:inline;opacity:1;vector-effect:none;fill:#f4f4f4;fill-opacity:1;fill-rule:evenodd;stroke:#000;stroke-width:.5291667;stroke-linecap:butt;stroke-linejoin:round;stroke-miterlimit:4;stroke-dasharray:none;stroke-dashoffset:0;stroke-opacity:1" d="M8.334 284.3H7.276s-.794 0-.794.794v1.323s0 .793.794.793h2.117s.793 0 .793-.793v-1.323s0-.794-.793-.794z" transform="translate(0 -280.067)"/><path style="display:inline;opacity:1;vector-effect:none;fill:#000;fill-opacity:1;fill-rule:evenodd;stroke:#000;stroke-width:.26458332;stroke-linecap:butt;stroke-linejoin:round;stroke-miterlimit:4;stroke-dasharray:none;stroke-dashoffset:0;stroke-opacity:1" d="M8.599 285.358h-.794v.794h1.059v-.794z" transform="translate(0 -280.067)"/></svg>