<svg xmlns="http://www.w3.org/2000/svg" width="64" height="64" viewBox="0 0 16.933 16.933"><path style="display:inline;opacity:1;vector-effect:none;fill:#f4f4f4;fill-opacity:1;fill-rule:evenodd;stroke:#000;stroke-width:.5291667;stroke-linecap:butt;stroke-linejoin:round;stroke-miterlimit:4;stroke-dasharray:none;stroke-dashoffset:0;stroke-opacity:1" d="m10.583 283.374.794-.53h1.588l2.116.795.265.529v2.646l-.265.529v1.058l.265.265h.529v1.323h-1.852l-.794-.794v-3.704l-.264-.265h-.53l-1.058.794h-.794zm-4.233 0-.794-.53H3.97l-2.117.795-.264.529v2.646l.264.529v1.058l-.264.265h-.53v1.323H2.91l.794-.794v-3.704l.265-.265h.529l1.058.794h.794z" transform="translate(0 -280.067)"/><path style="display:inline;opacity:1;vector-effect:none;fill:#99999b;fill-opacity:1;fill-rule:evenodd;stroke:#000;stroke-width:.5291667;stroke-linecap:butt;stroke-linejoin:round;stroke-miterlimit:4;stroke-dasharray:none;stroke-dashoffset:0;stroke-opacity:1" d="M10.583 291.047h.794v4.762h-5.82v-4.762zm-.529-3.704h.53v3.704H6.35v-3.704zm0-1.059v1.059H6.88v-1.059z" transform="translate(0 -280.067)"/><path style="display:inline;opacity:1;vector-effect:none;fill:#99999b;fill-opacity:1;fill-rule:evenodd;stroke:#000;stroke-width:.5291667;stroke-linecap:butt;stroke-linejoin:round;stroke-miterlimit:4;stroke-dasharray:none;stroke-dashoffset:0;stroke-opacity:1" d="M8.467 282.845H6.35v3.44h4.233v-3.44zm-1.587 0v-1.323s0-.265.264-.265H9.79s.264 0 .264.265v1.323z" transform="translate(0 -280.067)"/><path style="display:inline;opacity:1;vector-effect:none;fill:#444;fill-opacity:1;fill-rule:evenodd;stroke:#000;stroke-width:.5291667;stroke-linecap:butt;stroke-linejoin:round;stroke-miterlimit:4;stroke-dasharray:none;stroke-dashoffset:0;stroke-opacity:1" d="M7.938 291.047h1.058v2.117H7.938zm0 0v-1.588l.529-.529.529.53v1.587z" transform="translate(0 -280.067)"/><path style="display:inline;opacity:1;vector-effect:none;fill:#99999b;fill-opacity:1;fill-rule:evenodd;stroke:#000;stroke-width:.5291667;stroke-linecap:butt;stroke-linejoin:round;stroke-miterlimit:4;stroke-dasharray:none;stroke-dashoffset:0;stroke-opacity:1" d="M10.583 288.136h2.646v3.44h1.323v1.323h-2.646v-3.44h-1.323z" transform="translate(0 -280.067)"/></svg>