<svg xmlns="http://www.w3.org/2000/svg" width="64" height="64" viewBox="0 0 16.933 16.933"><path style="display:inline;opacity:1;vector-effect:none;fill:#f4f4f4;fill-opacity:1;fill-rule:evenodd;stroke:#000;stroke-width:.5291667;stroke-linecap:butt;stroke-linejoin:round;stroke-miterlimit:4;stroke-dasharray:none;stroke-dashoffset:0;stroke-opacity:1" d="m5.689 286.681 2.116-2.381-2.381-1.852H4.366v2.646H3.043s-.794 0-.794.793v.53s0 .793.794.793h2.116s.53 0 .53-.529V284.3l.264.53z" transform="translate(0 -280.067)"/><path style="display:inline;opacity:1;vector-effect:none;fill:#99999b;fill-opacity:1;fill-rule:evenodd;stroke:#000;stroke-width:.5291667;stroke-linecap:butt;stroke-linejoin:round;stroke-miterlimit:4;stroke-dasharray:none;stroke-dashoffset:0;stroke-opacity:1" d="M11.245 294.354h2.381v-2.646h-2.381z" transform="translate(0 -280.067)"/><path style="display:inline;opacity:1;vector-effect:none;fill:#f4f4f4;fill-opacity:1;fill-rule:evenodd;stroke:#000;stroke-width:.5291667;stroke-linecap:butt;stroke-linejoin:round;stroke-miterlimit:4;stroke-dasharray:none;stroke-dashoffset:0;stroke-opacity:1" d="M5.953 291.18h1.852l-2.116-2.382-2.382 2.381 1.588 1.588h3.969l3.44-3.44v-3.44h1.851v3.44h-1.058v2.381h-1.852v2.117s0 1.323-1.323 1.323H4.63l-3.175-3.175v-1.852l2.381-2.381h8.203v1.587l-3.175 3.175H5.159l-1.323-1.323 1.853-1.852 1.322 1.323v.265H5.69z" transform="translate(0 -280.067)"/><path style="display:inline;opacity:1;vector-effect:none;fill:#99999b;fill-opacity:1;fill-rule:evenodd;stroke:#000;stroke-width:.5291667;stroke-linecap:butt;stroke-linejoin:round;stroke-miterlimit:4;stroke-dasharray:none;stroke-dashoffset:0;stroke-opacity:1" d="M7.54 294.09H5.69v1.852h.793l1.323-.794v-1.058zm-5.556-1.323v2.38H4.63h-.529zm11.642-.794 1.852-1.852v-.794h-2.381v2.381h.529zm-1.058-8.467v-.264l-.794-.794v-1.323h1.323v.53h.264v-.53h1.323v1.323l-.793.794v.264z" transform="translate(0 -280.067)"/><path style="display:inline;opacity:1;vector-effect:none;fill:#f4f4f4;fill-opacity:1;fill-rule:evenodd;stroke:#000;stroke-width:.5291667;stroke-linecap:butt;stroke-linejoin:round;stroke-miterlimit:4;stroke-dasharray:none;stroke-dashoffset:0;stroke-opacity:1" d="M14.155 285.887h-1.852v-2.38h1.852z" transform="translate(0 -280.067)"/></svg>