<svg width="397.936" height="69.989" viewBox="0 0 105.287 18.518" xml:space="preserve" xmlns="http://www.w3.org/2000/svg"><path style="fill:#000000;fill-opacity:.73;stroke:none;stroke-width:.709083;stroke-linecap:round;stroke-linejoin:round;stroke-dasharray:none;stroke-opacity:.73" d="M76.068 98.047c-1.033-.008-1.2.522-1.22.713h.004v4.918h-.106c-.376 0-.792.232-1.219.232-.426 0-.795-.232-1.218-.232-.424 0-.795.232-1.221.232s-.796-.232-1.219-.232-.758.232-1.218.232-.798-.232-1.222-.232-.791.232-1.218.232-.806-.23-1.219-.232h-.106v-1.774c0-.068-.109-.143-.142-.17a1 1 0 0 0-.406-.181 2 2 0 0 0-.451-.043c-.454.006-.737.099-.873.219-.32.282-.49.463-.74.691-.322.291-.757.69-1.214 1.123-.913.866-1.904 1.862-2.23 2.386a.6.6 0 0 0-.101.23c0 .036.027.113.097.228.321.523 1.313 1.519 2.229 2.385.457.432.894.832 1.217 1.123.281.194.554.45.806.67.15.1.356.236.809.242.18.002.329-.016.45-.043a1 1 0 0 0 .407-.182.6.6 0 0 0 .142-.17v-1.775h.106c.415-.003.794-.215 1.219-.215s.794.215 1.218.215c.425 0 .763-.215 1.222-.215s.793.215 1.218.215.794-.215 1.219-.215.796.215 1.22.215c.425 0 .794-.215 1.22-.215.424 0 .84.215 1.218.215h.106v4.92h-.004c.02.19.187.72 1.22.712a1.5 1.5 0 0 0 .534-.09.97.97 0 0 0 .456-.345s.136-.195.157-.371v-.84h70.553l12.841-12.93H77.215v-.84c-.02-.176-.157-.37-.157-.37a.97.97 0 0 0-.456-.346 1.5 1.5 0 0 0-.534-.09m4.187 4.253h67.81a.4.4 0 0 1 .4.4v6.916a.4.4 0 0 1-.4.4h-67.81a.4.4 0 0 1-.4-.4V102.7a.4.4 0 0 1 .4-.4" transform="translate(-57.58 -96.9)"/><path style="fill:none;stroke:#000000;stroke-width:.70908333;stroke-linecap:round;stroke-linejoin:round;stroke-dasharray:none;stroke-opacity:.73" d="M76.074 97.254c-.886-.007-1.433.278-1.763.754-.115.165-.365.73-.252 1.129v3.86c-.211.059-.39.12-.532.12-.275 0-.656-.232-1.218-.232-.563 0-.946.232-1.221.232s-.656-.232-1.219-.232c-.562 0-.897.232-1.219.232-.32 0-.658-.232-1.22-.232-.563 0-.944.232-1.22.232-.143 0-.32-.06-.53-.12v-1.231l-.037-.108c-.228-.667-1.02-.951-1.768-.941-.64.008-1.119.099-1.643.6-2.936 2.842-2.976 2.89-2.976 2.89a20 20 0 0 0-.397.422q-.206.227-.377.435c-.122.151-.24.309-.326.446-.088.141-.218.433-.22.638-.003.21.127.512.214.655.085.138.202.296.325.447q.17.208.377.438.186.204.396.421s.173.145 1.702 1.661c1.625 1.477 2.189 1.82 2.925 1.83.748.01 1.54-.274 1.768-.942l.037-.107v-1.227c.207-.055.383-.11.53-.11.286 0 .666.216 1.22.216s.89-.215 1.22-.215.666.215 1.22.215c.552 0 .933-.215 1.218-.215s.667.215 1.22.215c.554 0 .934-.215 1.22-.215.144 0 .323.055.53.11v3.855c-.112.399.138.963.253 1.129.33.476.877.76 1.763.754.479-.004 1.785-.269 1.93-1.508l.004-.04v-.099h70.09L162.514 98.9H78.008v-.1l-.004-.038c-.145-1.24-1.451-1.504-1.93-1.508" transform="translate(-57.58 -96.9)"/></svg>