<svg xmlns="http://www.w3.org/2000/svg" width="64" height="64" viewBox="0 0 16.933 16.933"><g transform="translate(0 -280.067)"><circle style="display:inline;opacity:1;fill:#f4f4f4;fill-opacity:1;fill-rule:nonzero;stroke:#000;stroke-width:.5291667;stroke-linecap:round;stroke-linejoin:round;stroke-miterlimit:4;stroke-dasharray:none;stroke-dashoffset:0;stroke-opacity:1;paint-order:normal" cx="12.171" cy="289.724" r="3.572"/><path style="display:inline;opacity:1;vector-effect:none;fill:#f4f4f4;fill-opacity:1;fill-rule:evenodd;stroke:#000;stroke-width:.5291667;stroke-linecap:butt;stroke-linejoin:round;stroke-miterlimit:4;stroke-dasharray:none;stroke-dashoffset:0;stroke-opacity:1" d="M5.16 281.654h-.794l-1.323 1.323v7.938h2.116zm.264 9.526v1.587H1.191v-1.588zm0 0h1.323v1.587H5.424Z"/><path style="display:inline;opacity:1;vector-effect:none;fill:#99999b;fill-opacity:1;fill-rule:evenodd;stroke:#000;stroke-width:.5291667;stroke-linecap:butt;stroke-linejoin:round;stroke-miterlimit:4;stroke-dasharray:none;stroke-dashoffset:0;stroke-opacity:1" d="M5.16 293.031v1.323H3.042v-1.323zm0 1.323v1.058H3.042v-1.058z"/><path style="display:inline;opacity:1;vector-effect:none;fill:#444;fill-opacity:1;fill-rule:evenodd;stroke:#000;stroke-width:.5291667;stroke-linecap:butt;stroke-linejoin:round;stroke-miterlimit:4;stroke-dasharray:none;stroke-dashoffset:0;stroke-opacity:1" d="M10.98 288.269h2.646v2.91h-2.91v-2.91z"/><path style="display:inline;opacity:1;vector-effect:none;fill:#000;fill-opacity:1;fill-rule:evenodd;stroke:none;stroke-width:.26458332;stroke-linecap:butt;stroke-linejoin:miter;stroke-miterlimit:4;stroke-dasharray:none;stroke-dashoffset:0;stroke-opacity:1" d="M8.599 289.327h.794v.794h-.794zm3.175-3.175h.794v1.058h-.794zm3.175 3.175h.794v.794h-.794zm-3.175 2.91h.794v1.059h-.794z"/></g></svg>