<svg xmlns="http://www.w3.org/2000/svg" width="64" height="64" viewBox="0 0 16.933 16.933"><path style="display:inline;opacity:1;vector-effect:none;fill:#444;fill-opacity:1;fill-rule:evenodd;stroke:#000;stroke-width:.5291667;stroke-linecap:butt;stroke-linejoin:round;stroke-miterlimit:4;stroke-dasharray:none;stroke-dashoffset:0;stroke-opacity:1" d="m12.039 292.899-.53 1.323.265.264v.794l-.53.53H9.923l-.53-.53v-1.058l.265-.265h.265l1.058-1.852z" transform="translate(0 -280.067)"/><path style="display:inline;opacity:1;vector-effect:none;fill:#f4f4f4;fill-opacity:1;fill-rule:evenodd;stroke:#000;stroke-width:.5291667;stroke-linecap:butt;stroke-linejoin:round;stroke-miterlimit:4;stroke-dasharray:none;stroke-dashoffset:0;stroke-opacity:1" d="M6.482 281.257c-2.116 0-4.233 2.382-4.233 3.969 0 1.588 1.587 5.556 1.587 5.556l2.117-1.058v-.53s-1.323-2.38-1.323-4.233 2.117-3.175 2.117-3.175v-.529z" transform="translate(0 -280.067)"/><path style="display:inline;opacity:1;vector-effect:none;fill:#444;fill-opacity:1;fill-rule:evenodd;stroke:#000;stroke-width:.5291667;stroke-linecap:butt;stroke-linejoin:round;stroke-miterlimit:4;stroke-dasharray:none;stroke-dashoffset:0;stroke-opacity:1" d="m4.895 292.899.529 1.323-.265.264v.794l.53.53H7.01l.53-.53v-1.058l-.265-.265H7.01l-1.058-1.852Z" transform="translate(0 -280.067)"/><path style="display:inline;opacity:1;vector-effect:none;fill:#f4f4f4;fill-opacity:1;fill-rule:evenodd;stroke:#000;stroke-width:.5291667;stroke-linecap:butt;stroke-linejoin:round;stroke-miterlimit:4;stroke-dasharray:none;stroke-dashoffset:0;stroke-opacity:1" d="M7.011 289.46h-.793c-1.346.33-2.91 1.322-4.234 2.645 0 1.059.265 1.323 1.059 1.852 0 0 1.058-.793 2.381-1.587s2.646-1.059 2.646-1.059c0-.793-.265-1.322-.794-1.852zm3.44-8.203c2.117 0 4.233 2.382 4.233 3.969 0 1.588-1.587 5.556-1.587 5.556l-2.117-1.058v-.53s1.323-2.38 1.323-4.233-2.117-3.175-2.117-3.175v-.529z" transform="translate(0 -280.067)"/><path style="display:inline;opacity:1;vector-effect:none;fill:#f4f4f4;fill-opacity:1;fill-rule:evenodd;stroke:#000;stroke-width:.5291667;stroke-linecap:butt;stroke-linejoin:round;stroke-miterlimit:4;stroke-dasharray:none;stroke-dashoffset:0;stroke-opacity:1" d="M9.922 289.46h.794c1.346.33 2.91 1.322 4.233 2.645 0 1.059-.265 1.323-1.058 1.852 0 0-1.059-.793-2.382-1.587a9.3 9.3 0 0 0-2.645-1.059c0-.793.264-1.322.793-1.852z" transform="translate(0 -280.067)"/></svg>
