<svg xmlns="http://www.w3.org/2000/svg" width="64" height="64" viewBox="0 0 16.933 16.933"><path style="display:inline;opacity:1;vector-effect:none;fill:#99999b;fill-opacity:1;fill-rule:evenodd;stroke:#000;stroke-width:.5291667;stroke-linecap:butt;stroke-linejoin:round;stroke-miterlimit:4;stroke-dasharray:none;stroke-dashoffset:0;stroke-opacity:1" d="M6.35 292.767v2.116s0 1.059-1.058 1.059H2.91v-1.323h.794v-1.852z" transform="translate(0 -280.067)"/><path style="display:inline;opacity:1;vector-effect:none;fill:#f4f4f4;fill-opacity:1;fill-rule:evenodd;stroke:#000;stroke-width:.5291667;stroke-linecap:butt;stroke-linejoin:round;stroke-miterlimit:4;stroke-dasharray:none;stroke-dashoffset:0;stroke-opacity:1" d="m6.88 290.65 1.057 1.587v.53h-6.35v-.53l1.323-1.587z" transform="translate(0 -280.067)"/><path style="display:inline;opacity:1;vector-effect:none;fill:#99999b;fill-opacity:1;fill-rule:evenodd;stroke:#000;stroke-width:.5291667;stroke-linecap:butt;stroke-linejoin:round;stroke-miterlimit:4;stroke-dasharray:none;stroke-dashoffset:0;stroke-opacity:1" d="M6.88 288.004H1.586v2.646h5.821v-2.646z" transform="translate(0 -280.067)"/><path style="display:inline;opacity:1;vector-effect:none;fill:#444;fill-opacity:1;fill-rule:evenodd;stroke:none;stroke-width:.26458332;stroke-linecap:butt;stroke-linejoin:miter;stroke-miterlimit:4;stroke-dasharray:none;stroke-dashoffset:0;stroke-opacity:1" d="M3.969 288.269v1.323H2.646v-1.323zm2.646 0v1.323H5.292v-1.323z" transform="translate(0 -280.067)"/><path style="display:inline;opacity:1;vector-effect:none;fill:#f4f4f4;fill-opacity:1;fill-rule:evenodd;stroke:none;stroke-width:.26458332;stroke-linecap:butt;stroke-linejoin:miter;stroke-miterlimit:4;stroke-dasharray:none;stroke-dashoffset:0;stroke-opacity:1" d="m11.642 283.77 2.91 4.763v3.704l-1.587 2.117h-1.853l-2.38-6.085-1.06-1.588v-1.587l1.853-.53.794-.793z" transform="translate(0 -280.067)"/><path style="display:inline;opacity:1;vector-effect:none;fill:#99999b;fill-opacity:1;fill-rule:evenodd;stroke:none;stroke-width:.26458332;stroke-linecap:butt;stroke-linejoin:miter;stroke-miterlimit:4;stroke-dasharray:none;stroke-dashoffset:0;stroke-opacity:1" d="M14.552 288.269h-2.91v6.085h-1.323l-1.588-2.117v-3.968h2.91v-4.498h1.324l.793.794 1.852.529v1.587z" transform="translate(0 -280.067)"/><path style="display:inline;opacity:1;vector-effect:none;fill:none;fill-opacity:1;fill-rule:evenodd;stroke:#444;stroke-width:.5291667;stroke-linecap:butt;stroke-linejoin:miter;stroke-miterlimit:4;stroke-dasharray:none;stroke-dashoffset:0;stroke-opacity:1" d="M8.731 288.269h5.821" transform="translate(0 -280.067)"/><path style="display:inline;opacity:1;vector-effect:none;fill:none;fill-opacity:1;fill-rule:evenodd;stroke:#444;stroke-width:.5291667;stroke-linecap:butt;stroke-linejoin:round;stroke-miterlimit:4;stroke-dasharray:none;stroke-dashoffset:0;stroke-opacity:1" d="M11.642 283.77v10.584" transform="translate(0 -280.067)"/><path style="display:inline;opacity:1;vector-effect:none;fill:none;fill-opacity:1;fill-rule:evenodd;stroke:#000;stroke-width:.5291667;stroke-linecap:butt;stroke-linejoin:round;stroke-miterlimit:4;stroke-dasharray:none;stroke-dashoffset:0;stroke-opacity:1" d="m10.319 283.77-.794.795-1.852.529v1.587l1.058 1.588v3.968l1.588 2.117h2.646l1.587-2.117v-3.968l1.058-1.588v-1.587l-1.852-.53-.793-.793h-1.323z" transform="translate(0 -280.067)"/><path style="display:inline;opacity:1;vector-effect:none;fill:#000;fill-opacity:1;fill-rule:evenodd;stroke:#000;stroke-width:.5291667;stroke-linecap:butt;stroke-linejoin:round;stroke-miterlimit:4;stroke-dasharray:none;stroke-dashoffset:0;stroke-opacity:1" d="M10.054 286.417v.793h.53v-1.058h-.53zm2.646 0v.793h.53v-1.058h-.53zm-2.646 3.439v.794h.53v-1.058h-.53zm2.646 0v.794h.53v-1.058h-.53z" transform="translate(0 -280.067)"/><path style="display:inline;opacity:1;vector-effect:none;fill:#99999b;fill-opacity:1;fill-rule:evenodd;stroke:#000;stroke-width:.5291667;stroke-linecap:butt;stroke-linejoin:round;stroke-miterlimit:4;stroke-dasharray:none;stroke-dashoffset:0;stroke-opacity:1" d="M6.085 284.035v3.97h-2.38v-3.97zm0 0h.794v-1.323H3.704v1.323z" transform="translate(0 -280.067)"/><path style="display:inline;opacity:1;vector-effect:none;fill:#f4f4f4;fill-opacity:1;fill-rule:evenodd;stroke:#000;stroke-width:.5291667;stroke-linecap:butt;stroke-linejoin:round;stroke-miterlimit:4;stroke-dasharray:none;stroke-dashoffset:0;stroke-opacity:1" d="M3.704 282.712v-1.587h-.529l-1.852 1.323v3.969h2.381z" transform="translate(0 -280.067)"/></svg>
