<svg xmlns="http://www.w3.org/2000/svg" width="64" height="64" viewBox="0 0 16.933 16.933"><path style="display:inline;opacity:1;vector-effect:none;fill:#99999b;fill-opacity:1;fill-rule:evenodd;stroke:#000;stroke-width:.5291667;stroke-linecap:butt;stroke-linejoin:round;stroke-miterlimit:4;stroke-dasharray:none;stroke-dashoffset:0;stroke-opacity:1" d="M9.525 291.444h1.058v.529h.265v-.794h1.323v2.117H8.996v-1.852z" transform="translate(0 -280.067)"/><path style="display:inline;opacity:1;vector-effect:none;fill:#f4f4f4;fill-opacity:1;fill-rule:evenodd;stroke:none;stroke-width:.26458332;stroke-linecap:butt;stroke-linejoin:miter;stroke-miterlimit:4;stroke-dasharray:none;stroke-dashoffset:0;stroke-opacity:1" d="M10.583 284.3v3.704l-1.323 3.704H7.673l-1.323-3.704V284.3z" transform="translate(0 -280.067)"/><path style="color:#000;font-style:normal;font-variant:normal;font-weight:400;font-stretch:normal;font-size:medium;line-height:normal;font-family:sans-serif;font-variant-ligatures:normal;font-variant-position:normal;font-variant-caps:normal;font-variant-numeric:normal;font-variant-alternates:normal;font-feature-settings:normal;text-indent:0;text-align:start;text-decoration:none;text-decoration-line:none;text-decoration-style:solid;text-decoration-color:#000;letter-spacing:normal;word-spacing:normal;text-transform:none;writing-mode:lr-tb;direction:ltr;text-orientation:mixed;dominant-baseline:auto;baseline-shift:baseline;text-anchor:start;white-space:normal;shape-padding:0;clip-rule:nonzero;display:inline;overflow:visible;visibility:visible;opacity:1;isolation:auto;mix-blend-mode:normal;color-interpolation:sRGB;color-interpolation-filters:linearRGB;solid-color:#000;solid-opacity:1;vector-effect:none;fill:#444;fill-opacity:1;fill-rule:evenodd;stroke:none;stroke-width:.26458335;stroke-linecap:butt;stroke-linejoin:round;stroke-miterlimit:4;stroke-dasharray:none;stroke-dashoffset:0;stroke-opacity:1;color-rendering:auto;image-rendering:auto;shape-rendering:auto;text-rendering:auto" d="M8.19 289.725a.133.133 0 0 0-.12.13v1.854c.001.072.06.13.131.131h.53a.13.13 0 0 0 .133-.13v-1.854a.13.13 0 0 0-.133-.131z" transform="translate(0 -280.067)"/><path style="display:inline;opacity:1;vector-effect:none;fill:#99999b;fill-opacity:1;fill-rule:evenodd;stroke:none;stroke-width:.26458332;stroke-linecap:butt;stroke-linejoin:miter;stroke-miterlimit:4;stroke-dasharray:none;stroke-dashoffset:0;stroke-opacity:1" d="M7.408 291.444h2.117l-.265.529v1.058l.53 1.059v1.322l-.265.53H7.408l-.264-.53v-1.322l.529-1.059v-1.058z" transform="translate(0 -280.067)"/><path style="display:inline;opacity:1;vector-effect:none;fill:none;fill-opacity:1;fill-rule:evenodd;stroke:#000;stroke-width:.5291667;stroke-linecap:butt;stroke-linejoin:miter;stroke-miterlimit:4;stroke-dasharray:none;stroke-dashoffset:0;stroke-opacity:1" d="M8.467 284.3H6.35v3.704l1.323 3.969v.794l-.53 1.323v1.322s0 .53.53.53H9.26s.53 0 .53-.53v-1.322l-.53-1.323v-.794l1.323-3.969V284.3z" transform="translate(0 -280.067)"/><path style="display:inline;opacity:1;vector-effect:none;fill:#f4f4f4;fill-opacity:1;fill-rule:evenodd;stroke:#000;stroke-width:.5291667;stroke-linecap:butt;stroke-linejoin:round;stroke-miterlimit:4;stroke-dasharray:none;stroke-dashoffset:0;stroke-opacity:1" d="m5.82 282.448-2.116 2.117v3.968h-.529v-.264l.265-.265v-.529l-.265-.265H2.117l-.794.794v1.058l1.323 1.323h1.323l1.323-1.323v-3.704l1.323-1.323h3.704l1.323 1.323v3.704l1.323 1.323h1.323l1.322-1.323v-1.058l-.793-.794h-1.059l-.264.265v.53l.264.264v.264h-.529v-3.968l-2.116-2.117H8.467Zm1.853 0v-1.058s0-.265.265-.265h1.058s.264 0 .264.265v1.058z" transform="translate(0 -280.067)"/></svg>
