<svg xmlns="http://www.w3.org/2000/svg" width="64" height="64" viewBox="0 0 16.933 16.933"><path style="display:inline;opacity:1;vector-effect:none;fill:#99999b;fill-opacity:1;fill-rule:evenodd;stroke:none;stroke-width:.26458332;stroke-linecap:butt;stroke-linejoin:miter;stroke-miterlimit:4;stroke-dasharray:none;stroke-dashoffset:0;stroke-opacity:1" d="m14.155 281.786 1.588 1.323v.794l-2.117 2.91-2.117-1.587z" transform="translate(0 -280.067)"/><path style="color:#000;font-style:normal;font-variant:normal;font-weight:400;font-stretch:normal;font-size:medium;line-height:normal;font-family:sans-serif;font-variant-ligatures:normal;font-variant-position:normal;font-variant-caps:normal;font-variant-numeric:normal;font-variant-alternates:normal;font-feature-settings:normal;text-indent:0;text-align:start;text-decoration:none;text-decoration-line:none;text-decoration-style:solid;text-decoration-color:#000;letter-spacing:normal;word-spacing:normal;text-transform:none;writing-mode:lr-tb;direction:ltr;text-orientation:mixed;dominant-baseline:auto;baseline-shift:baseline;text-anchor:start;white-space:normal;shape-padding:0;clip-rule:nonzero;display:inline;overflow:visible;visibility:visible;opacity:1;isolation:auto;mix-blend-mode:normal;color-interpolation:sRGB;color-interpolation-filters:linearRGB;solid-color:#000;solid-opacity:1;vector-effect:none;fill:#444;fill-opacity:1;fill-rule:evenodd;stroke:none;stroke-width:2;stroke-linecap:butt;stroke-linejoin:round;stroke-miterlimit:4;stroke-dasharray:none;stroke-dashoffset:0;stroke-opacity:1;color-rendering:auto;image-rendering:auto;shape-rendering:auto;text-rendering:auto" d="m56.723 8.873-3.397 4.246-3.224-2.416-1.204 1.594 8.002 6.002 1.204-1.602-3.178-2.38 3.353-4.19zm-9.627 5.824L45.9 16.3l8.002 6 1.196-1.602z" transform="scale(.26458)"/><path style="display:inline;opacity:1;vector-effect:none;fill:#99999b;fill-opacity:1;fill-rule:evenodd;stroke:none;stroke-width:.26458332;stroke-linecap:butt;stroke-linejoin:miter;stroke-miterlimit:4;stroke-dasharray:none;stroke-dashoffset:0;stroke-opacity:1" d="M1.19 295.016v-1.323h2.382l1.587-.794 2.382-2.117 2.91-3.704 1.058.794-.264 1.587-6.35 5.557z" transform="translate(0 -280.067)"/><path style="display:inline;opacity:1;vector-effect:none;fill:#f4f4f4;fill-opacity:1;fill-rule:evenodd;stroke:none;stroke-width:.26458332;stroke-linecap:butt;stroke-linejoin:miter;stroke-miterlimit:4;stroke-dasharray:none;stroke-dashoffset:0;stroke-opacity:1" d="M1.19 294.751h2.646c3.175 0 7.673-6.88 7.673-6.88l1.059.795-.265.529-4.498 5.027-1.852 1.323-.794.264H2.514l-1.059-.529z" transform="translate(0 -280.067)"/><path style="display:inline;opacity:1;vector-effect:none;fill:none;fill-opacity:1;fill-rule:evenodd;stroke:#000;stroke-width:.5291667;stroke-linecap:butt;stroke-linejoin:round;stroke-miterlimit:4;stroke-dasharray:none;stroke-dashoffset:0;stroke-opacity:1" d="m12.568 288.666-2.117-1.588s-4.498 6.615-7.408 6.615H1.19v1.058s0 1.058 1.852 1.058h1.852c2.381 0 7.673-7.143 7.673-7.143z" transform="translate(0 -280.067)"/><path style="display:inline;opacity:1;vector-effect:none;fill:#f4f4f4;fill-opacity:1;fill-rule:evenodd;stroke:#000;stroke-width:.5291667;stroke-linecap:butt;stroke-linejoin:round;stroke-miterlimit:4;stroke-dasharray:none;stroke-dashoffset:0;stroke-opacity:1" d="m13.89 288.666-.264.264-3.969-2.91 1.059-1.323 3.968 2.91z" transform="translate(0 -280.067)"/><path style="display:inline;opacity:1;vector-effect:none;fill:none;fill-opacity:1;fill-rule:evenodd;stroke:#000;stroke-width:.5291667;stroke-linecap:butt;stroke-linejoin:round;stroke-miterlimit:4;stroke-dasharray:none;stroke-dashoffset:0;stroke-opacity:1" d="m11.51 285.226 2.645-3.44 1.588 1.323v.794l-2.117 2.91z" transform="translate(0 -280.067)"/><path style="display:inline;opacity:1;vector-effect:none;fill:#99999b;fill-opacity:1;fill-rule:evenodd;stroke:#000;stroke-width:.5291667;stroke-linecap:butt;stroke-linejoin:round;stroke-miterlimit:4;stroke-dasharray:none;stroke-dashoffset:0;stroke-opacity:1" d="M12.568 283.374s-.794-.265-1.852-.265-1.323.265-2.646.265v1.587s.794-.264 1.852-.264h1.587zm-4.498 0s-.794-.53-1.852-.53v2.647c1.058 0 1.852-.53 1.852-.53zm-1.852-.529v-.53l-1.323-1.058H3.836v1.059l2.382 1.323-2.382-1.059H2.514v.794l1.058.794 2.646.529-2.91-.265-.794.794v.53h3.44l.264-.265z" transform="translate(0 -280.067)"/></svg>
